# xmcd CD database file
#
# Track frame offsets:
#	150
#	6051
#	23591
#	43615
#	58252
#	63971
#	82209
#	98987
#	118588
#	127608
#	149221
#	173861
#	191470
#	209853
#	227303
#	246593
#
# Disc length: 3571 seconds
#
# Revision: 2
# Processed by: cddbd v1.5.1PL0 Copyright (c) Steve Scherf et al.
# Submitted via: CDex 1.51
#
DISCID=e40df110
DTITLE=112 - Part III
DYEAR=2001
DGENRE=R&B
TTITLE0=Q, Mike,Slim, Daron(Interlude) 
TTITLE1=112 - Dance With Me
TTITLE2=112 - It's Over Now
TTITLE3=112 - Peaches and Cream
TTITLE4=112 - I Surrender (Interlude)
TTITLE5=112 - Missing You
TTITLE6=112 - All I Want Is You
TTITLE7=112 - Don't Hate Me Ft. Twista
TTITLE8=112 - Q, Mike  Slim, Daron (Interlud 
TTITLE9=112 - Player
TTITLE10=112 - Sweet Love
TTITLE11=112 - Smile
TTITLE12=112 - Caught Up
TTITLE13=112 - Do What You Gotta Do
TTITLE14=112 - I Think
TTITLE15=112 - Still In Love
EXTD=YEAR: 2001
EXTT0=
EXTT1=
EXTT2=
EXTT3=
EXTT4=
EXTT5=
EXTT6=
EXTT7=
EXTT8=
EXTT9=
EXTT10=
EXTT11=
EXTT12=
EXTT13=
EXTT14=
EXTT15=
PLAYORDER=
